<?xml version="1.0" encoding="utf-8"?>
<!-- Generator: Adobe Illustrator 16.0.0, SVG Export Plug-In . SVG Version: 6.00 Build 0)  -->
<!DOCTYPE svg PUBLIC "-//W3C//DTD SVG 1.1//EN" "http://www.w3.org/Graphics/SVG/1.1/DTD/svg11.dtd">
<svg version="1.1" id="Layer_1" xmlns="http://www.w3.org/2000/svg" xmlns:xlink="http://www.w3.org/1999/xlink" x="0px" y="0px"
	 width="350px" height="350px" viewBox="0 0 350 350" enable-background="new 0 0 350 350" xml:space="preserve">
<g>
	<path fill="none" stroke="#0C4C7E" stroke-width="8.0424" stroke-miterlimit="10" d="M291.977,184.171
		c0,64.602-52.369,116.976-116.975,116.976c-64.609,0-116.979-52.374-116.979-116.976c0-64.607,52.369-116.978,116.979-116.978
		C239.607,67.193,291.977,119.563,291.977,184.171z"/>
	<circle fill="none" stroke="#0C4C7E" stroke-width="8.0424" stroke-miterlimit="10" cx="175" cy="184.171" r="61.199"/>
	<polygon fill="none" stroke="#0C4C7E" stroke-width="8.0424" stroke-miterlimit="10" points="106.525,302.772 38.05,184.171 
		106.525,65.568 243.475,65.568 311.951,184.171 243.475,302.772 	"/>
	<g>
		<path fill="none" stroke="#0C4C7E" stroke-width="8.0424" stroke-miterlimit="10" d="M136.99,119.333
			c-5.398,3.169-10.49,7.067-15.125,11.702c-4.598,4.599-8.475,9.645-11.631,14.998"/>
		<path fill="none" stroke="#0C4C7E" stroke-width="8.0424" stroke-miterlimit="10" d="M206.053,115.727
			c-19.643-8.906-42.317-8.924-61.973-0.059"/>
		<path fill="none" stroke="#0C4C7E" stroke-width="8.0424" stroke-miterlimit="10" d="M106.558,153.118
			c-8.908,19.641-8.93,42.318-0.061,61.973"/>
		<path fill="none" stroke="#0C4C7E" stroke-width="8.0424" stroke-miterlimit="10" d="M243.443,215.222
			c8.908-19.641,8.928-42.317,0.063-61.972"/>
		<path fill="none" stroke="#0C4C7E" stroke-width="8.0424" stroke-miterlimit="10" d="M110.162,222.181
			c3.17,5.398,7.068,10.488,11.703,15.123c4.602,4.602,9.646,8.477,14.998,11.633"/>
		<path fill="none" stroke="#0C4C7E" stroke-width="8.0424" stroke-miterlimit="10" d="M239.844,146.163
			c-3.174-5.402-7.072-10.494-11.709-15.128c-4.598-4.6-9.646-8.475-14.996-11.632"/>
		<path fill="none" stroke="#0C4C7E" stroke-width="8.0424" stroke-miterlimit="10" d="M143.948,252.614
			c19.638,8.906,42.32,8.924,61.972,0.061"/>
		<path fill="none" stroke="#0C4C7E" stroke-width="8.0424" stroke-miterlimit="10" d="M213.01,249.011
			c5.402-3.172,10.492-7.07,15.125-11.707c4.604-4.597,8.477-9.643,11.633-14.996"/>
	</g>
	<g>
		
			<line fill="none" stroke="#0C4C7E" stroke-width="8.0424" stroke-miterlimit="10" x1="15.885" y1="183.858" x2="146.154" y2="183.858"/>
		
			<line fill="none" stroke="#0C4C7E" stroke-width="8.0424" stroke-miterlimit="10" x1="203.846" y1="183.858" x2="334.115" y2="183.858"/>
		
			<line fill="none" stroke="#0C4C7E" stroke-width="8.0424" stroke-miterlimit="10" x1="163.523" y1="184.481" x2="186.477" y2="184.481"/>
	</g>
	<g>
		
			<line fill="none" stroke="#0C4C7E" stroke-width="8.0424" stroke-miterlimit="10" x1="175.312" y1="25.053" x2="175.312" y2="155.322"/>
		
			<line fill="none" stroke="#0C4C7E" stroke-width="8.0424" stroke-miterlimit="10" x1="175.312" y1="213.013" x2="175.312" y2="324.947"/>
		
			<line fill="none" stroke="#0C4C7E" stroke-width="8.0424" stroke-miterlimit="10" x1="174.689" y1="172.693" x2="174.689" y2="195.646"/>
	</g>
</g>
</svg>
